<mxfile host="Electron" modified="2024-09-20T14:04:53.273Z" agent="Mozilla/5.0 (Windows NT 10.0; Win64; x64) AppleWebKit/537.36 (KHTML, like Gecko) draw.io/22.0.3 Chrome/114.0.5735.289 Electron/25.8.4 Safari/537.36" etag="8ox3SV_JLInnGPjxNqot" version="22.0.3" type="device">
  <diagram name="Page 1" id="Page-1">
    <mxGraphModel dx="1404" dy="546" grid="1" gridSize="10" guides="1" tooltips="1" connect="1" arrows="1" fold="1" page="1" pageScale="1" pageWidth="889" pageHeight="380" math="0" shadow="0">
      <root>
        <mxCell id="0" />
        <mxCell id="1" parent="0" />
        <mxCell id="QGvBPcfqkOfmn8XZEpkV-155" value="" style="rounded=0;whiteSpace=wrap;html=1;fillColor=none;dashed=1;dashPattern=8 8;" vertex="1" parent="1">
          <mxGeometry x="20" y="390" width="850" height="360" as="geometry" />
        </mxCell>
        <mxCell id="QGvBPcfqkOfmn8XZEpkV-156" value="" style="rounded=0;whiteSpace=wrap;html=1;points=[];fillColor=#CCCCCC;fillOpacity=20;" vertex="1" parent="1">
          <mxGeometry x="70" y="430" width="50" height="40" as="geometry" />
        </mxCell>
        <mxCell id="QGvBPcfqkOfmn8XZEpkV-157" value="" style="rounded=0;whiteSpace=wrap;html=1;points=[];fillColor=#CCCCCC;fillOpacity=20;" vertex="1" parent="1">
          <mxGeometry x="120" y="430" width="50" height="40" as="geometry" />
        </mxCell>
        <mxCell id="QGvBPcfqkOfmn8XZEpkV-158" value="" style="rounded=0;whiteSpace=wrap;html=1;points=[];fillColor=#CCCCCC;fillOpacity=20;" vertex="1" parent="1">
          <mxGeometry x="170" y="430" width="50" height="40" as="geometry" />
        </mxCell>
        <mxCell id="QGvBPcfqkOfmn8XZEpkV-159" value="" style="rounded=0;whiteSpace=wrap;html=1;points=[];fillColor=#CCCCCC;fillOpacity=20;" vertex="1" parent="1">
          <mxGeometry x="220" y="430" width="50" height="40" as="geometry" />
        </mxCell>
        <mxCell id="QGvBPcfqkOfmn8XZEpkV-160" value="" style="rounded=0;whiteSpace=wrap;html=1;points=[];fillColor=#CCCCCC;fillOpacity=20;" vertex="1" parent="1">
          <mxGeometry x="270" y="430" width="50" height="40" as="geometry" />
        </mxCell>
        <mxCell id="QGvBPcfqkOfmn8XZEpkV-161" value="" style="rounded=0;whiteSpace=wrap;html=1;points=[];fillColor=#CCCCCC;fillOpacity=20;" vertex="1" parent="1">
          <mxGeometry x="320" y="430" width="50" height="40" as="geometry" />
        </mxCell>
        <mxCell id="QGvBPcfqkOfmn8XZEpkV-162" value="" style="rounded=0;whiteSpace=wrap;html=1;points=[];fillColor=#CCCCCC;fillOpacity=20;" vertex="1" parent="1">
          <mxGeometry x="370" y="430" width="50" height="40" as="geometry" />
        </mxCell>
        <mxCell id="QGvBPcfqkOfmn8XZEpkV-163" value="" style="rounded=0;whiteSpace=wrap;html=1;points=[];fillColor=#CCCCCC;fillOpacity=20;" vertex="1" parent="1">
          <mxGeometry x="420" y="430" width="50" height="40" as="geometry" />
        </mxCell>
        <mxCell id="QGvBPcfqkOfmn8XZEpkV-164" value="" style="rounded=0;whiteSpace=wrap;html=1;points=[];fillColor=#CCCCCC;fillOpacity=20;" vertex="1" parent="1">
          <mxGeometry x="470" y="430" width="50" height="40" as="geometry" />
        </mxCell>
        <mxCell id="QGvBPcfqkOfmn8XZEpkV-165" value="" style="rounded=0;whiteSpace=wrap;html=1;points=[];fillColor=#CCCCCC;fillOpacity=20;" vertex="1" parent="1">
          <mxGeometry x="520" y="430" width="50" height="40" as="geometry" />
        </mxCell>
        <mxCell id="QGvBPcfqkOfmn8XZEpkV-166" value="" style="rounded=0;whiteSpace=wrap;html=1;points=[];fillColor=#CCCCCC;fillOpacity=20;" vertex="1" parent="1">
          <mxGeometry x="570" y="430" width="50" height="40" as="geometry" />
        </mxCell>
        <mxCell id="QGvBPcfqkOfmn8XZEpkV-167" value="" style="rounded=0;whiteSpace=wrap;html=1;points=[];fillColor=#CCCCCC;fillOpacity=20;" vertex="1" parent="1">
          <mxGeometry x="620" y="430" width="50" height="40" as="geometry" />
        </mxCell>
        <mxCell id="QGvBPcfqkOfmn8XZEpkV-168" value="" style="rounded=0;whiteSpace=wrap;html=1;points=[];fillColor=#CCCCCC;fillOpacity=20;" vertex="1" parent="1">
          <mxGeometry x="670" y="430" width="50" height="40" as="geometry" />
        </mxCell>
        <mxCell id="QGvBPcfqkOfmn8XZEpkV-169" value="" style="rounded=0;whiteSpace=wrap;html=1;points=[];fillColor=#CCCCCC;fillOpacity=20;" vertex="1" parent="1">
          <mxGeometry x="720" y="430" width="50" height="40" as="geometry" />
        </mxCell>
        <mxCell id="QGvBPcfqkOfmn8XZEpkV-170" value="" style="rounded=0;whiteSpace=wrap;html=1;points=[];fillColor=#CCCCCC;fillOpacity=20;" vertex="1" parent="1">
          <mxGeometry x="770" y="430" width="50" height="40" as="geometry" />
        </mxCell>
        <mxCell id="QGvBPcfqkOfmn8XZEpkV-171" value="" style="rounded=0;whiteSpace=wrap;html=1;points=[];fillColor=#CCCCCC;fillOpacity=20;" vertex="1" parent="1">
          <mxGeometry x="820" y="430" width="50" height="40" as="geometry" />
        </mxCell>
        <mxCell id="QGvBPcfqkOfmn8XZEpkV-172" value="" style="rounded=0;whiteSpace=wrap;html=1;points=[];fillColor=#CCCCCC;fillOpacity=20;" vertex="1" parent="1">
          <mxGeometry x="70" y="470" width="50" height="40" as="geometry" />
        </mxCell>
        <mxCell id="QGvBPcfqkOfmn8XZEpkV-173" value="" style="rounded=0;whiteSpace=wrap;html=1;points=[];fillColor=#CCCCCC;fillOpacity=20;" vertex="1" parent="1">
          <mxGeometry x="120" y="470" width="50" height="40" as="geometry" />
        </mxCell>
        <mxCell id="QGvBPcfqkOfmn8XZEpkV-174" value="" style="rounded=0;whiteSpace=wrap;html=1;points=[];fillColor=#CCCCCC;fillOpacity=20;" vertex="1" parent="1">
          <mxGeometry x="170" y="470" width="50" height="40" as="geometry" />
        </mxCell>
        <mxCell id="QGvBPcfqkOfmn8XZEpkV-175" value="" style="rounded=0;whiteSpace=wrap;html=1;points=[];fillColor=#CCCCCC;fillOpacity=20;" vertex="1" parent="1">
          <mxGeometry x="220" y="470" width="50" height="40" as="geometry" />
        </mxCell>
        <mxCell id="QGvBPcfqkOfmn8XZEpkV-176" value="" style="rounded=0;whiteSpace=wrap;html=1;points=[];fillColor=#CCCCCC;fillOpacity=20;" vertex="1" parent="1">
          <mxGeometry x="270" y="470" width="50" height="40" as="geometry" />
        </mxCell>
        <mxCell id="QGvBPcfqkOfmn8XZEpkV-177" value="" style="rounded=0;whiteSpace=wrap;html=1;points=[];fillColor=#CCCCCC;fillOpacity=20;" vertex="1" parent="1">
          <mxGeometry x="320" y="470" width="50" height="40" as="geometry" />
        </mxCell>
        <mxCell id="QGvBPcfqkOfmn8XZEpkV-178" value="" style="rounded=0;whiteSpace=wrap;html=1;points=[];fillColor=#CCCCCC;fillOpacity=20;" vertex="1" parent="1">
          <mxGeometry x="370" y="470" width="50" height="40" as="geometry" />
        </mxCell>
        <mxCell id="QGvBPcfqkOfmn8XZEpkV-179" value="" style="rounded=0;whiteSpace=wrap;html=1;points=[];fillColor=#CCCCCC;fillOpacity=20;" vertex="1" parent="1">
          <mxGeometry x="420" y="470" width="50" height="40" as="geometry" />
        </mxCell>
        <mxCell id="QGvBPcfqkOfmn8XZEpkV-180" value="" style="rounded=0;whiteSpace=wrap;html=1;points=[];fillColor=#CCCCCC;fillOpacity=20;" vertex="1" parent="1">
          <mxGeometry x="470" y="470" width="50" height="40" as="geometry" />
        </mxCell>
        <mxCell id="QGvBPcfqkOfmn8XZEpkV-181" value="" style="rounded=0;whiteSpace=wrap;html=1;points=[];fillColor=#CCCCCC;fillOpacity=20;" vertex="1" parent="1">
          <mxGeometry x="520" y="470" width="50" height="40" as="geometry" />
        </mxCell>
        <mxCell id="QGvBPcfqkOfmn8XZEpkV-182" value="" style="rounded=0;whiteSpace=wrap;html=1;points=[];fillColor=#CCCCCC;fillOpacity=20;" vertex="1" parent="1">
          <mxGeometry x="570" y="470" width="50" height="40" as="geometry" />
        </mxCell>
        <mxCell id="QGvBPcfqkOfmn8XZEpkV-183" value="" style="rounded=0;whiteSpace=wrap;html=1;points=[];fillColor=#CCCCCC;fillOpacity=20;" vertex="1" parent="1">
          <mxGeometry x="620" y="470" width="50" height="40" as="geometry" />
        </mxCell>
        <mxCell id="QGvBPcfqkOfmn8XZEpkV-184" value="" style="rounded=0;whiteSpace=wrap;html=1;points=[];fillColor=#CCCCCC;fillOpacity=20;" vertex="1" parent="1">
          <mxGeometry x="670" y="470" width="50" height="40" as="geometry" />
        </mxCell>
        <mxCell id="QGvBPcfqkOfmn8XZEpkV-185" value="" style="rounded=0;whiteSpace=wrap;html=1;points=[];fillColor=#CCCCCC;fillOpacity=20;" vertex="1" parent="1">
          <mxGeometry x="720" y="470" width="50" height="40" as="geometry" />
        </mxCell>
        <mxCell id="QGvBPcfqkOfmn8XZEpkV-186" value="" style="rounded=0;whiteSpace=wrap;html=1;points=[];fillColor=#CCCCCC;fillOpacity=20;" vertex="1" parent="1">
          <mxGeometry x="770" y="470" width="50" height="40" as="geometry" />
        </mxCell>
        <mxCell id="QGvBPcfqkOfmn8XZEpkV-187" value="" style="rounded=0;whiteSpace=wrap;html=1;points=[];fillColor=#CCCCCC;fillOpacity=20;" vertex="1" parent="1">
          <mxGeometry x="820" y="470" width="50" height="40" as="geometry" />
        </mxCell>
        <mxCell id="QGvBPcfqkOfmn8XZEpkV-188" value="NBSP" style="rounded=0;whiteSpace=wrap;html=1;points=[];fillColor=none;fillOpacity=20;" vertex="1" parent="1">
          <mxGeometry x="70" y="510" width="50" height="40" as="geometry" />
        </mxCell>
        <mxCell id="QGvBPcfqkOfmn8XZEpkV-189" value="¡" style="rounded=0;whiteSpace=wrap;html=1;points=[];fillColor=none;fillOpacity=20;" vertex="1" parent="1">
          <mxGeometry x="120" y="510" width="50" height="40" as="geometry" />
        </mxCell>
        <mxCell id="QGvBPcfqkOfmn8XZEpkV-190" value="¢" style="rounded=0;whiteSpace=wrap;html=1;points=[];fillColor=none;fillOpacity=20;" vertex="1" parent="1">
          <mxGeometry x="170" y="510" width="50" height="40" as="geometry" />
        </mxCell>
        <mxCell id="QGvBPcfqkOfmn8XZEpkV-191" value="£" style="rounded=0;whiteSpace=wrap;html=1;points=[];fillColor=none;fillOpacity=20;" vertex="1" parent="1">
          <mxGeometry x="220" y="510" width="50" height="40" as="geometry" />
        </mxCell>
        <mxCell id="QGvBPcfqkOfmn8XZEpkV-192" value="¤&lt;br style=&quot;border-color: var(--border-color); font-family: Calibri; font-size: 14.11px;&quot;&gt;&lt;span style=&quot;font-family: Calibri; font-size: 14.11px;&quot;&gt;€&lt;/span&gt;" style="rounded=0;whiteSpace=wrap;html=1;points=[];fillColor=none;fillOpacity=20;" vertex="1" parent="1">
          <mxGeometry x="270" y="510" width="50" height="40" as="geometry" />
        </mxCell>
        <mxCell id="QGvBPcfqkOfmn8XZEpkV-193" value="¥" style="rounded=0;whiteSpace=wrap;html=1;points=[];fillColor=none;fillOpacity=20;" vertex="1" parent="1">
          <mxGeometry x="320" y="510" width="50" height="40" as="geometry" />
        </mxCell>
        <mxCell id="QGvBPcfqkOfmn8XZEpkV-194" value="¦&lt;br style=&quot;border-color: var(--border-color); font-family: Calibri; font-size: 14.11px;&quot;&gt;&lt;span style=&quot;font-family: Calibri; font-size: 14.11px;&quot;&gt;Š&lt;/span&gt;" style="rounded=0;whiteSpace=wrap;html=1;points=[];fillColor=none;fillOpacity=20;" vertex="1" parent="1">
          <mxGeometry x="370" y="510" width="50" height="40" as="geometry" />
        </mxCell>
        <mxCell id="QGvBPcfqkOfmn8XZEpkV-195" value="§" style="rounded=0;whiteSpace=wrap;html=1;points=[];fillColor=none;fillOpacity=20;" vertex="1" parent="1">
          <mxGeometry x="420" y="510" width="50" height="40" as="geometry" />
        </mxCell>
        <mxCell id="QGvBPcfqkOfmn8XZEpkV-196" value="¨&lt;br style=&quot;border-color: var(--border-color); font-family: Calibri; font-size: 14.11px;&quot;&gt;&lt;span style=&quot;font-family: Calibri; font-size: 14.11px;&quot;&gt;š&lt;/span&gt;" style="rounded=0;whiteSpace=wrap;html=1;points=[];fillColor=none;fillOpacity=20;" vertex="1" parent="1">
          <mxGeometry x="470" y="510" width="50" height="40" as="geometry" />
        </mxCell>
        <mxCell id="QGvBPcfqkOfmn8XZEpkV-197" value="©" style="rounded=0;whiteSpace=wrap;html=1;points=[];fillColor=none;fillOpacity=20;" vertex="1" parent="1">
          <mxGeometry x="520" y="510" width="50" height="40" as="geometry" />
        </mxCell>
        <mxCell id="QGvBPcfqkOfmn8XZEpkV-198" value="ª" style="rounded=0;whiteSpace=wrap;html=1;points=[];fillColor=none;fillOpacity=20;" vertex="1" parent="1">
          <mxGeometry x="570" y="510" width="50" height="40" as="geometry" />
        </mxCell>
        <mxCell id="QGvBPcfqkOfmn8XZEpkV-199" value="«" style="rounded=0;whiteSpace=wrap;html=1;points=[];fillColor=none;fillOpacity=20;" vertex="1" parent="1">
          <mxGeometry x="620" y="510" width="50" height="40" as="geometry" />
        </mxCell>
        <mxCell id="QGvBPcfqkOfmn8XZEpkV-200" value="¬" style="rounded=0;whiteSpace=wrap;html=1;points=[];fillColor=none;fillOpacity=20;" vertex="1" parent="1">
          <mxGeometry x="670" y="510" width="50" height="40" as="geometry" />
        </mxCell>
        <mxCell id="QGvBPcfqkOfmn8XZEpkV-201" value="SHY" style="rounded=0;whiteSpace=wrap;html=1;points=[];fillColor=none;fillOpacity=20;" vertex="1" parent="1">
          <mxGeometry x="720" y="510" width="50" height="40" as="geometry" />
        </mxCell>
        <mxCell id="QGvBPcfqkOfmn8XZEpkV-202" value="®" style="rounded=0;whiteSpace=wrap;html=1;points=[];fillColor=none;fillOpacity=20;" vertex="1" parent="1">
          <mxGeometry x="770" y="510" width="50" height="40" as="geometry" />
        </mxCell>
        <mxCell id="QGvBPcfqkOfmn8XZEpkV-203" value="¯" style="rounded=0;whiteSpace=wrap;html=1;points=[];fillColor=none;fillOpacity=20;" vertex="1" parent="1">
          <mxGeometry x="820" y="510" width="50" height="40" as="geometry" />
        </mxCell>
        <mxCell id="QGvBPcfqkOfmn8XZEpkV-204" value="°" style="rounded=0;whiteSpace=wrap;html=1;points=[];fillColor=none;fillOpacity=20;" vertex="1" parent="1">
          <mxGeometry x="70" y="550" width="50" height="40" as="geometry" />
        </mxCell>
        <mxCell id="QGvBPcfqkOfmn8XZEpkV-205" value="±" style="rounded=0;whiteSpace=wrap;html=1;points=[];fillColor=none;fillOpacity=20;" vertex="1" parent="1">
          <mxGeometry x="120" y="550" width="50" height="40" as="geometry" />
        </mxCell>
        <mxCell id="QGvBPcfqkOfmn8XZEpkV-206" value="²" style="rounded=0;whiteSpace=wrap;html=1;points=[];fillColor=none;fillOpacity=20;" vertex="1" parent="1">
          <mxGeometry x="170" y="550" width="50" height="40" as="geometry" />
        </mxCell>
        <mxCell id="QGvBPcfqkOfmn8XZEpkV-207" value="³" style="rounded=0;whiteSpace=wrap;html=1;points=[];fillColor=none;fillOpacity=20;" vertex="1" parent="1">
          <mxGeometry x="220" y="550" width="50" height="40" as="geometry" />
        </mxCell>
        <mxCell id="QGvBPcfqkOfmn8XZEpkV-208" value="´&lt;br style=&quot;border-color: var(--border-color); font-family: Calibri; font-size: 14.11px;&quot;&gt;&lt;span style=&quot;font-family: Calibri; font-size: 14.11px;&quot;&gt;Ž&lt;/span&gt;" style="rounded=0;whiteSpace=wrap;html=1;points=[];fillColor=none;fillOpacity=20;" vertex="1" parent="1">
          <mxGeometry x="270" y="550" width="50" height="40" as="geometry" />
        </mxCell>
        <mxCell id="QGvBPcfqkOfmn8XZEpkV-209" value="µ" style="rounded=0;whiteSpace=wrap;html=1;points=[];fillColor=none;fillOpacity=20;" vertex="1" parent="1">
          <mxGeometry x="320" y="550" width="50" height="40" as="geometry" />
        </mxCell>
        <mxCell id="QGvBPcfqkOfmn8XZEpkV-210" value="¶" style="rounded=0;whiteSpace=wrap;html=1;points=[];fillColor=none;fillOpacity=20;" vertex="1" parent="1">
          <mxGeometry x="370" y="550" width="50" height="40" as="geometry" />
        </mxCell>
        <mxCell id="QGvBPcfqkOfmn8XZEpkV-211" value="·" style="rounded=0;whiteSpace=wrap;html=1;points=[];fillColor=none;fillOpacity=20;" vertex="1" parent="1">
          <mxGeometry x="420" y="550" width="50" height="40" as="geometry" />
        </mxCell>
        <mxCell id="QGvBPcfqkOfmn8XZEpkV-212" value="¸&lt;br style=&quot;border-color: var(--border-color); font-family: Calibri; font-size: 14.11px;&quot;&gt;&lt;span style=&quot;font-family: Calibri; font-size: 14.11px;&quot;&gt;ž&lt;/span&gt;" style="rounded=0;whiteSpace=wrap;html=1;points=[];fillColor=none;fillOpacity=20;" vertex="1" parent="1">
          <mxGeometry x="470" y="550" width="50" height="40" as="geometry" />
        </mxCell>
        <mxCell id="QGvBPcfqkOfmn8XZEpkV-213" value="¹" style="rounded=0;whiteSpace=wrap;html=1;points=[];fillColor=none;fillOpacity=20;" vertex="1" parent="1">
          <mxGeometry x="520" y="550" width="50" height="40" as="geometry" />
        </mxCell>
        <mxCell id="QGvBPcfqkOfmn8XZEpkV-214" value="º" style="rounded=0;whiteSpace=wrap;html=1;points=[];fillColor=none;fillOpacity=20;" vertex="1" parent="1">
          <mxGeometry x="570" y="550" width="50" height="40" as="geometry" />
        </mxCell>
        <mxCell id="QGvBPcfqkOfmn8XZEpkV-215" value="»" style="rounded=0;whiteSpace=wrap;html=1;points=[];fillColor=none;fillOpacity=20;" vertex="1" parent="1">
          <mxGeometry x="620" y="550" width="50" height="40" as="geometry" />
        </mxCell>
        <mxCell id="QGvBPcfqkOfmn8XZEpkV-216" value="¼&lt;br style=&quot;border-color: var(--border-color); font-family: Calibri; font-size: 14.11px;&quot;&gt;&lt;span style=&quot;font-family: Calibri; font-size: 14.11px;&quot;&gt;Œ&lt;/span&gt;" style="rounded=0;whiteSpace=wrap;html=1;points=[];fillColor=none;fillOpacity=20;" vertex="1" parent="1">
          <mxGeometry x="670" y="550" width="50" height="40" as="geometry" />
        </mxCell>
        <mxCell id="QGvBPcfqkOfmn8XZEpkV-217" value="½&lt;br style=&quot;border-color: var(--border-color); font-family: Calibri; font-size: 14.11px;&quot;&gt;&lt;span style=&quot;font-family: Calibri; font-size: 14.11px;&quot;&gt;œ&lt;/span&gt;" style="rounded=0;whiteSpace=wrap;html=1;points=[];fillColor=none;fillOpacity=20;" vertex="1" parent="1">
          <mxGeometry x="720" y="550" width="50" height="40" as="geometry" />
        </mxCell>
        <mxCell id="QGvBPcfqkOfmn8XZEpkV-218" value="¾&lt;br style=&quot;border-color: var(--border-color); font-family: Calibri; font-size: 14.11px;&quot;&gt;&lt;span style=&quot;font-family: Calibri; font-size: 14.11px;&quot;&gt;Ÿ&lt;/span&gt;" style="rounded=0;whiteSpace=wrap;html=1;points=[];fillColor=none;fillOpacity=20;" vertex="1" parent="1">
          <mxGeometry x="770" y="550" width="50" height="40" as="geometry" />
        </mxCell>
        <mxCell id="QGvBPcfqkOfmn8XZEpkV-219" value="¿" style="rounded=0;whiteSpace=wrap;html=1;points=[];fillColor=none;fillOpacity=20;" vertex="1" parent="1">
          <mxGeometry x="820" y="550" width="50" height="40" as="geometry" />
        </mxCell>
        <mxCell id="QGvBPcfqkOfmn8XZEpkV-220" value="À" style="rounded=0;whiteSpace=wrap;html=1;points=[];fillColor=none;fillOpacity=20;" vertex="1" parent="1">
          <mxGeometry x="70" y="590" width="50" height="40" as="geometry" />
        </mxCell>
        <mxCell id="QGvBPcfqkOfmn8XZEpkV-221" value="Á" style="rounded=0;whiteSpace=wrap;html=1;points=[];fillColor=none;fillOpacity=20;" vertex="1" parent="1">
          <mxGeometry x="120" y="590" width="50" height="40" as="geometry" />
        </mxCell>
        <mxCell id="QGvBPcfqkOfmn8XZEpkV-222" value="Â" style="rounded=0;whiteSpace=wrap;html=1;points=[];fillColor=none;fillOpacity=20;" vertex="1" parent="1">
          <mxGeometry x="170" y="590" width="50" height="40" as="geometry" />
        </mxCell>
        <mxCell id="QGvBPcfqkOfmn8XZEpkV-223" value="Ã" style="rounded=0;whiteSpace=wrap;html=1;points=[];fillColor=none;fillOpacity=20;" vertex="1" parent="1">
          <mxGeometry x="220" y="590" width="50" height="40" as="geometry" />
        </mxCell>
        <mxCell id="QGvBPcfqkOfmn8XZEpkV-224" value="Ä" style="rounded=0;whiteSpace=wrap;html=1;points=[];fillColor=none;fillOpacity=20;" vertex="1" parent="1">
          <mxGeometry x="270" y="590" width="50" height="40" as="geometry" />
        </mxCell>
        <mxCell id="QGvBPcfqkOfmn8XZEpkV-225" value="Å" style="rounded=0;whiteSpace=wrap;html=1;points=[];fillColor=none;fillOpacity=20;" vertex="1" parent="1">
          <mxGeometry x="320" y="590" width="50" height="40" as="geometry" />
        </mxCell>
        <mxCell id="QGvBPcfqkOfmn8XZEpkV-226" value="Æ" style="rounded=0;whiteSpace=wrap;html=1;points=[];fillColor=none;fillOpacity=20;" vertex="1" parent="1">
          <mxGeometry x="370" y="590" width="50" height="40" as="geometry" />
        </mxCell>
        <mxCell id="QGvBPcfqkOfmn8XZEpkV-227" value="Ç" style="rounded=0;whiteSpace=wrap;html=1;points=[];fillColor=none;fillOpacity=20;" vertex="1" parent="1">
          <mxGeometry x="420" y="590" width="50" height="40" as="geometry" />
        </mxCell>
        <mxCell id="QGvBPcfqkOfmn8XZEpkV-228" value="È" style="rounded=0;whiteSpace=wrap;html=1;points=[];fillColor=none;fillOpacity=20;" vertex="1" parent="1">
          <mxGeometry x="470" y="590" width="50" height="40" as="geometry" />
        </mxCell>
        <mxCell id="QGvBPcfqkOfmn8XZEpkV-229" value="É" style="rounded=0;whiteSpace=wrap;html=1;points=[];fillColor=none;fillOpacity=20;" vertex="1" parent="1">
          <mxGeometry x="520" y="590" width="50" height="40" as="geometry" />
        </mxCell>
        <mxCell id="QGvBPcfqkOfmn8XZEpkV-230" value="Ê" style="rounded=0;whiteSpace=wrap;html=1;points=[];fillColor=none;fillOpacity=20;" vertex="1" parent="1">
          <mxGeometry x="570" y="590" width="50" height="40" as="geometry" />
        </mxCell>
        <mxCell id="QGvBPcfqkOfmn8XZEpkV-231" value="Ë" style="rounded=0;whiteSpace=wrap;html=1;points=[];fillColor=none;fillOpacity=20;" vertex="1" parent="1">
          <mxGeometry x="620" y="590" width="50" height="40" as="geometry" />
        </mxCell>
        <mxCell id="QGvBPcfqkOfmn8XZEpkV-232" value="Ì" style="rounded=0;whiteSpace=wrap;html=1;points=[];fillColor=none;fillOpacity=20;" vertex="1" parent="1">
          <mxGeometry x="670" y="590" width="50" height="40" as="geometry" />
        </mxCell>
        <mxCell id="QGvBPcfqkOfmn8XZEpkV-233" value="Í" style="rounded=0;whiteSpace=wrap;html=1;points=[];fillColor=none;fillOpacity=20;" vertex="1" parent="1">
          <mxGeometry x="720" y="590" width="50" height="40" as="geometry" />
        </mxCell>
        <mxCell id="QGvBPcfqkOfmn8XZEpkV-234" value="Î" style="rounded=0;whiteSpace=wrap;html=1;points=[];fillColor=none;fillOpacity=20;" vertex="1" parent="1">
          <mxGeometry x="770" y="590" width="50" height="40" as="geometry" />
        </mxCell>
        <mxCell id="QGvBPcfqkOfmn8XZEpkV-235" value="Ï" style="rounded=0;whiteSpace=wrap;html=1;points=[];fillColor=none;fillOpacity=20;" vertex="1" parent="1">
          <mxGeometry x="820" y="590" width="50" height="40" as="geometry" />
        </mxCell>
        <mxCell id="QGvBPcfqkOfmn8XZEpkV-236" value="Ð" style="rounded=0;whiteSpace=wrap;html=1;points=[];fillColor=none;fillOpacity=20;" vertex="1" parent="1">
          <mxGeometry x="70" y="630" width="50" height="40" as="geometry" />
        </mxCell>
        <mxCell id="QGvBPcfqkOfmn8XZEpkV-237" value="Ñ" style="rounded=0;whiteSpace=wrap;html=1;points=[];fillColor=none;fillOpacity=20;" vertex="1" parent="1">
          <mxGeometry x="120" y="630" width="50" height="40" as="geometry" />
        </mxCell>
        <mxCell id="QGvBPcfqkOfmn8XZEpkV-238" value="Ò" style="rounded=0;whiteSpace=wrap;html=1;points=[];fillColor=none;fillOpacity=20;" vertex="1" parent="1">
          <mxGeometry x="170" y="630" width="50" height="40" as="geometry" />
        </mxCell>
        <mxCell id="QGvBPcfqkOfmn8XZEpkV-239" value="Ó" style="rounded=0;whiteSpace=wrap;html=1;points=[];fillColor=none;fillOpacity=20;" vertex="1" parent="1">
          <mxGeometry x="220" y="630" width="50" height="40" as="geometry" />
        </mxCell>
        <mxCell id="QGvBPcfqkOfmn8XZEpkV-240" value="Ô" style="rounded=0;whiteSpace=wrap;html=1;points=[];fillColor=none;fillOpacity=20;" vertex="1" parent="1">
          <mxGeometry x="270" y="630" width="50" height="40" as="geometry" />
        </mxCell>
        <mxCell id="QGvBPcfqkOfmn8XZEpkV-241" value="Õ" style="rounded=0;whiteSpace=wrap;html=1;points=[];fillColor=none;fillOpacity=20;" vertex="1" parent="1">
          <mxGeometry x="320" y="630" width="50" height="40" as="geometry" />
        </mxCell>
        <mxCell id="QGvBPcfqkOfmn8XZEpkV-242" value="Ö" style="rounded=0;whiteSpace=wrap;html=1;points=[];fillColor=none;fillOpacity=20;" vertex="1" parent="1">
          <mxGeometry x="370" y="630" width="50" height="40" as="geometry" />
        </mxCell>
        <mxCell id="QGvBPcfqkOfmn8XZEpkV-243" value="×" style="rounded=0;whiteSpace=wrap;html=1;points=[];fillColor=none;fillOpacity=20;" vertex="1" parent="1">
          <mxGeometry x="420" y="630" width="50" height="40" as="geometry" />
        </mxCell>
        <mxCell id="QGvBPcfqkOfmn8XZEpkV-244" value="Ø" style="rounded=0;whiteSpace=wrap;html=1;points=[];fillColor=none;fillOpacity=20;" vertex="1" parent="1">
          <mxGeometry x="470" y="630" width="50" height="40" as="geometry" />
        </mxCell>
        <mxCell id="QGvBPcfqkOfmn8XZEpkV-245" value="Ù" style="rounded=0;whiteSpace=wrap;html=1;points=[];fillColor=none;fillOpacity=20;" vertex="1" parent="1">
          <mxGeometry x="520" y="630" width="50" height="40" as="geometry" />
        </mxCell>
        <mxCell id="QGvBPcfqkOfmn8XZEpkV-246" value="Ú" style="rounded=0;whiteSpace=wrap;html=1;points=[];fillColor=none;fillOpacity=20;" vertex="1" parent="1">
          <mxGeometry x="570" y="630" width="50" height="40" as="geometry" />
        </mxCell>
        <mxCell id="QGvBPcfqkOfmn8XZEpkV-247" value="Û" style="rounded=0;whiteSpace=wrap;html=1;points=[];fillColor=none;fillOpacity=20;" vertex="1" parent="1">
          <mxGeometry x="620" y="630" width="50" height="40" as="geometry" />
        </mxCell>
        <mxCell id="QGvBPcfqkOfmn8XZEpkV-248" value="Ü" style="rounded=0;whiteSpace=wrap;html=1;points=[];fillColor=none;fillOpacity=20;" vertex="1" parent="1">
          <mxGeometry x="670" y="630" width="50" height="40" as="geometry" />
        </mxCell>
        <mxCell id="QGvBPcfqkOfmn8XZEpkV-249" value="Ý" style="rounded=0;whiteSpace=wrap;html=1;points=[];fillColor=none;fillOpacity=20;" vertex="1" parent="1">
          <mxGeometry x="720" y="630" width="50" height="40" as="geometry" />
        </mxCell>
        <mxCell id="QGvBPcfqkOfmn8XZEpkV-250" value="Þ" style="rounded=0;whiteSpace=wrap;html=1;points=[];fillColor=none;fillOpacity=20;" vertex="1" parent="1">
          <mxGeometry x="770" y="630" width="50" height="40" as="geometry" />
        </mxCell>
        <mxCell id="QGvBPcfqkOfmn8XZEpkV-251" value="ß" style="rounded=0;whiteSpace=wrap;html=1;points=[];fillColor=none;fillOpacity=20;" vertex="1" parent="1">
          <mxGeometry x="820" y="630" width="50" height="40" as="geometry" />
        </mxCell>
        <mxCell id="QGvBPcfqkOfmn8XZEpkV-252" value="à" style="rounded=0;whiteSpace=wrap;html=1;points=[];fillColor=none;fillOpacity=20;" vertex="1" parent="1">
          <mxGeometry x="70" y="670" width="50" height="40" as="geometry" />
        </mxCell>
        <mxCell id="QGvBPcfqkOfmn8XZEpkV-253" value="á" style="rounded=0;whiteSpace=wrap;html=1;points=[];fillColor=none;fillOpacity=20;" vertex="1" parent="1">
          <mxGeometry x="120" y="670" width="50" height="40" as="geometry" />
        </mxCell>
        <mxCell id="QGvBPcfqkOfmn8XZEpkV-254" value="â" style="rounded=0;whiteSpace=wrap;html=1;points=[];fillColor=none;fillOpacity=20;" vertex="1" parent="1">
          <mxGeometry x="170" y="670" width="50" height="40" as="geometry" />
        </mxCell>
        <mxCell id="QGvBPcfqkOfmn8XZEpkV-255" value="ã" style="rounded=0;whiteSpace=wrap;html=1;points=[];fillColor=none;fillOpacity=20;" vertex="1" parent="1">
          <mxGeometry x="220" y="670" width="50" height="40" as="geometry" />
        </mxCell>
        <mxCell id="QGvBPcfqkOfmn8XZEpkV-256" value="ä" style="rounded=0;whiteSpace=wrap;html=1;points=[];fillColor=none;fillOpacity=20;" vertex="1" parent="1">
          <mxGeometry x="270" y="670" width="50" height="40" as="geometry" />
        </mxCell>
        <mxCell id="QGvBPcfqkOfmn8XZEpkV-257" value="å" style="rounded=0;whiteSpace=wrap;html=1;points=[];fillColor=none;fillOpacity=20;" vertex="1" parent="1">
          <mxGeometry x="320" y="670" width="50" height="40" as="geometry" />
        </mxCell>
        <mxCell id="QGvBPcfqkOfmn8XZEpkV-258" value="æ" style="rounded=0;whiteSpace=wrap;html=1;points=[];fillColor=none;fillOpacity=20;" vertex="1" parent="1">
          <mxGeometry x="370" y="670" width="50" height="40" as="geometry" />
        </mxCell>
        <mxCell id="QGvBPcfqkOfmn8XZEpkV-259" value="ç" style="rounded=0;whiteSpace=wrap;html=1;points=[];fillColor=none;fillOpacity=20;" vertex="1" parent="1">
          <mxGeometry x="420" y="670" width="50" height="40" as="geometry" />
        </mxCell>
        <mxCell id="QGvBPcfqkOfmn8XZEpkV-260" value="è" style="rounded=0;whiteSpace=wrap;html=1;points=[];fillColor=none;fillOpacity=20;" vertex="1" parent="1">
          <mxGeometry x="470" y="670" width="50" height="40" as="geometry" />
        </mxCell>
        <mxCell id="QGvBPcfqkOfmn8XZEpkV-261" value="é" style="rounded=0;whiteSpace=wrap;html=1;points=[];fillColor=none;fillOpacity=20;" vertex="1" parent="1">
          <mxGeometry x="520" y="670" width="50" height="40" as="geometry" />
        </mxCell>
        <mxCell id="QGvBPcfqkOfmn8XZEpkV-262" value="ê" style="rounded=0;whiteSpace=wrap;html=1;points=[];fillColor=none;fillOpacity=20;" vertex="1" parent="1">
          <mxGeometry x="570" y="670" width="50" height="40" as="geometry" />
        </mxCell>
        <mxCell id="QGvBPcfqkOfmn8XZEpkV-263" value="ë" style="rounded=0;whiteSpace=wrap;html=1;points=[];fillColor=none;fillOpacity=20;" vertex="1" parent="1">
          <mxGeometry x="620" y="670" width="50" height="40" as="geometry" />
        </mxCell>
        <mxCell id="QGvBPcfqkOfmn8XZEpkV-264" value="ì" style="rounded=0;whiteSpace=wrap;html=1;points=[];fillColor=none;fillOpacity=20;" vertex="1" parent="1">
          <mxGeometry x="670" y="670" width="50" height="40" as="geometry" />
        </mxCell>
        <mxCell id="QGvBPcfqkOfmn8XZEpkV-265" value="í" style="rounded=0;whiteSpace=wrap;html=1;points=[];fillColor=none;fillOpacity=20;" vertex="1" parent="1">
          <mxGeometry x="720" y="670" width="50" height="40" as="geometry" />
        </mxCell>
        <mxCell id="QGvBPcfqkOfmn8XZEpkV-266" value="î" style="rounded=0;whiteSpace=wrap;html=1;points=[];fillColor=none;fillOpacity=20;" vertex="1" parent="1">
          <mxGeometry x="770" y="670" width="50" height="40" as="geometry" />
        </mxCell>
        <mxCell id="QGvBPcfqkOfmn8XZEpkV-267" value="ï" style="rounded=0;whiteSpace=wrap;html=1;points=[];fillColor=none;fillOpacity=20;" vertex="1" parent="1">
          <mxGeometry x="820" y="670" width="50" height="40" as="geometry" />
        </mxCell>
        <mxCell id="QGvBPcfqkOfmn8XZEpkV-268" value="ð" style="rounded=0;whiteSpace=wrap;html=1;points=[];fillColor=none;fillOpacity=20;" vertex="1" parent="1">
          <mxGeometry x="70" y="710" width="50" height="40" as="geometry" />
        </mxCell>
        <mxCell id="QGvBPcfqkOfmn8XZEpkV-269" value="ñ" style="rounded=0;whiteSpace=wrap;html=1;points=[];fillColor=none;fillOpacity=20;" vertex="1" parent="1">
          <mxGeometry x="120" y="710" width="50" height="40" as="geometry" />
        </mxCell>
        <mxCell id="QGvBPcfqkOfmn8XZEpkV-270" value="ò" style="rounded=0;whiteSpace=wrap;html=1;points=[];fillColor=none;fillOpacity=20;" vertex="1" parent="1">
          <mxGeometry x="170" y="710" width="50" height="40" as="geometry" />
        </mxCell>
        <mxCell id="QGvBPcfqkOfmn8XZEpkV-271" value="ó" style="rounded=0;whiteSpace=wrap;html=1;points=[];fillColor=none;fillOpacity=20;" vertex="1" parent="1">
          <mxGeometry x="220" y="710" width="50" height="40" as="geometry" />
        </mxCell>
        <mxCell id="QGvBPcfqkOfmn8XZEpkV-272" value="ô" style="rounded=0;whiteSpace=wrap;html=1;points=[];fillColor=none;fillOpacity=20;" vertex="1" parent="1">
          <mxGeometry x="270" y="710" width="50" height="40" as="geometry" />
        </mxCell>
        <mxCell id="QGvBPcfqkOfmn8XZEpkV-273" value="õ" style="rounded=0;whiteSpace=wrap;html=1;points=[];fillColor=none;fillOpacity=20;" vertex="1" parent="1">
          <mxGeometry x="320" y="710" width="50" height="40" as="geometry" />
        </mxCell>
        <mxCell id="QGvBPcfqkOfmn8XZEpkV-274" value="ö" style="rounded=0;whiteSpace=wrap;html=1;points=[];fillColor=none;fillOpacity=20;" vertex="1" parent="1">
          <mxGeometry x="370" y="710" width="50" height="40" as="geometry" />
        </mxCell>
        <mxCell id="QGvBPcfqkOfmn8XZEpkV-275" value="÷" style="rounded=0;whiteSpace=wrap;html=1;points=[];fillColor=none;fillOpacity=20;" vertex="1" parent="1">
          <mxGeometry x="420" y="710" width="50" height="40" as="geometry" />
        </mxCell>
        <mxCell id="QGvBPcfqkOfmn8XZEpkV-276" value="ø" style="rounded=0;whiteSpace=wrap;html=1;points=[];fillColor=none;fillOpacity=20;" vertex="1" parent="1">
          <mxGeometry x="470" y="710" width="50" height="40" as="geometry" />
        </mxCell>
        <mxCell id="QGvBPcfqkOfmn8XZEpkV-277" value="ù" style="rounded=0;whiteSpace=wrap;html=1;points=[];fillColor=none;fillOpacity=20;" vertex="1" parent="1">
          <mxGeometry x="520" y="710" width="50" height="40" as="geometry" />
        </mxCell>
        <mxCell id="QGvBPcfqkOfmn8XZEpkV-278" value="ú" style="rounded=0;whiteSpace=wrap;html=1;points=[];fillColor=none;fillOpacity=20;" vertex="1" parent="1">
          <mxGeometry x="570" y="710" width="50" height="40" as="geometry" />
        </mxCell>
        <mxCell id="QGvBPcfqkOfmn8XZEpkV-279" value="û" style="rounded=0;whiteSpace=wrap;html=1;points=[];fillColor=none;fillOpacity=20;" vertex="1" parent="1">
          <mxGeometry x="620" y="710" width="50" height="40" as="geometry" />
        </mxCell>
        <mxCell id="QGvBPcfqkOfmn8XZEpkV-280" value="ü" style="rounded=0;whiteSpace=wrap;html=1;points=[];fillColor=none;fillOpacity=20;" vertex="1" parent="1">
          <mxGeometry x="670" y="710" width="50" height="40" as="geometry" />
        </mxCell>
        <mxCell id="QGvBPcfqkOfmn8XZEpkV-281" value="ý" style="rounded=0;whiteSpace=wrap;html=1;points=[];fillColor=none;fillOpacity=20;" vertex="1" parent="1">
          <mxGeometry x="720" y="710" width="50" height="40" as="geometry" />
        </mxCell>
        <mxCell id="QGvBPcfqkOfmn8XZEpkV-282" value="þ" style="rounded=0;whiteSpace=wrap;html=1;points=[];fillColor=none;fillOpacity=20;" vertex="1" parent="1">
          <mxGeometry x="770" y="710" width="50" height="40" as="geometry" />
        </mxCell>
        <mxCell id="QGvBPcfqkOfmn8XZEpkV-283" value="ÿ" style="rounded=0;whiteSpace=wrap;html=1;points=[];fillColor=none;fillOpacity=20;" vertex="1" parent="1">
          <mxGeometry x="820" y="710" width="50" height="40" as="geometry" />
        </mxCell>
        <mxCell id="QGvBPcfqkOfmn8XZEpkV-284" value="000&lt;br&gt;0x00" style="text;strokeColor=none;align=center;fillColor=none;html=1;verticalAlign=middle;whiteSpace=wrap;rounded=0;" vertex="1" parent="1">
          <mxGeometry x="20" y="435" width="50" height="30" as="geometry" />
        </mxCell>
        <mxCell id="QGvBPcfqkOfmn8XZEpkV-285" value="020&lt;br&gt;0x10" style="text;strokeColor=none;align=center;fillColor=none;html=1;verticalAlign=middle;whiteSpace=wrap;rounded=0;" vertex="1" parent="1">
          <mxGeometry x="20" y="475" width="50" height="30" as="geometry" />
        </mxCell>
        <mxCell id="QGvBPcfqkOfmn8XZEpkV-286" value="040&lt;br&gt;0x20" style="text;strokeColor=none;align=center;fillColor=none;html=1;verticalAlign=middle;whiteSpace=wrap;rounded=0;" vertex="1" parent="1">
          <mxGeometry x="20" y="515" width="50" height="30" as="geometry" />
        </mxCell>
        <mxCell id="QGvBPcfqkOfmn8XZEpkV-287" value="060&lt;br&gt;0x30" style="text;strokeColor=none;align=center;fillColor=none;html=1;verticalAlign=middle;whiteSpace=wrap;rounded=0;" vertex="1" parent="1">
          <mxGeometry x="20" y="555" width="50" height="30" as="geometry" />
        </mxCell>
        <mxCell id="QGvBPcfqkOfmn8XZEpkV-288" value="080&lt;br&gt;0x40" style="text;strokeColor=none;align=center;fillColor=none;html=1;verticalAlign=middle;whiteSpace=wrap;rounded=0;" vertex="1" parent="1">
          <mxGeometry x="20" y="595" width="50" height="30" as="geometry" />
        </mxCell>
        <mxCell id="QGvBPcfqkOfmn8XZEpkV-289" value="0120&lt;br&gt;0x50" style="text;strokeColor=none;align=center;fillColor=none;html=1;verticalAlign=middle;whiteSpace=wrap;rounded=0;" vertex="1" parent="1">
          <mxGeometry x="20" y="635" width="50" height="30" as="geometry" />
        </mxCell>
        <mxCell id="QGvBPcfqkOfmn8XZEpkV-290" value="0140&lt;br&gt;0x60" style="text;strokeColor=none;align=center;fillColor=none;html=1;verticalAlign=middle;whiteSpace=wrap;rounded=0;" vertex="1" parent="1">
          <mxGeometry x="20" y="675" width="50" height="30" as="geometry" />
        </mxCell>
        <mxCell id="QGvBPcfqkOfmn8XZEpkV-291" value="0160&lt;br&gt;0x70" style="text;strokeColor=none;align=center;fillColor=none;html=1;verticalAlign=middle;whiteSpace=wrap;rounded=0;" vertex="1" parent="1">
          <mxGeometry x="20" y="715" width="50" height="30" as="geometry" />
        </mxCell>
        <mxCell id="QGvBPcfqkOfmn8XZEpkV-292" value="000&lt;br&gt;0x00" style="text;strokeColor=none;align=center;fillColor=none;html=1;verticalAlign=middle;whiteSpace=wrap;rounded=0;" vertex="1" parent="1">
          <mxGeometry x="71" y="397" width="50" height="30" as="geometry" />
        </mxCell>
        <mxCell id="QGvBPcfqkOfmn8XZEpkV-293" value="001&lt;br&gt;0x01" style="text;strokeColor=none;align=center;fillColor=none;html=1;verticalAlign=middle;whiteSpace=wrap;rounded=0;" vertex="1" parent="1">
          <mxGeometry x="121" y="397" width="50" height="30" as="geometry" />
        </mxCell>
        <mxCell id="QGvBPcfqkOfmn8XZEpkV-294" value="002&lt;br&gt;0x02" style="text;strokeColor=none;align=center;fillColor=none;html=1;verticalAlign=middle;whiteSpace=wrap;rounded=0;" vertex="1" parent="1">
          <mxGeometry x="170" y="397" width="50" height="30" as="geometry" />
        </mxCell>
        <mxCell id="QGvBPcfqkOfmn8XZEpkV-295" value="003&lt;br&gt;0x03" style="text;strokeColor=none;align=center;fillColor=none;html=1;verticalAlign=middle;whiteSpace=wrap;rounded=0;" vertex="1" parent="1">
          <mxGeometry x="220" y="397" width="50" height="30" as="geometry" />
        </mxCell>
        <mxCell id="QGvBPcfqkOfmn8XZEpkV-296" value="004&lt;br&gt;0x04" style="text;strokeColor=none;align=center;fillColor=none;html=1;verticalAlign=middle;whiteSpace=wrap;rounded=0;" vertex="1" parent="1">
          <mxGeometry x="270" y="397" width="50" height="30" as="geometry" />
        </mxCell>
        <mxCell id="QGvBPcfqkOfmn8XZEpkV-297" value="005&lt;br&gt;0x05" style="text;strokeColor=none;align=center;fillColor=none;html=1;verticalAlign=middle;whiteSpace=wrap;rounded=0;" vertex="1" parent="1">
          <mxGeometry x="320" y="397" width="50" height="30" as="geometry" />
        </mxCell>
        <mxCell id="QGvBPcfqkOfmn8XZEpkV-298" value="006&lt;br&gt;0x06" style="text;strokeColor=none;align=center;fillColor=none;html=1;verticalAlign=middle;whiteSpace=wrap;rounded=0;" vertex="1" parent="1">
          <mxGeometry x="369" y="397" width="50" height="30" as="geometry" />
        </mxCell>
        <mxCell id="QGvBPcfqkOfmn8XZEpkV-299" value="007&lt;br&gt;0x07" style="text;strokeColor=none;align=center;fillColor=none;html=1;verticalAlign=middle;whiteSpace=wrap;rounded=0;" vertex="1" parent="1">
          <mxGeometry x="419" y="397" width="50" height="30" as="geometry" />
        </mxCell>
        <mxCell id="QGvBPcfqkOfmn8XZEpkV-300" value="010&lt;br&gt;0x08" style="text;strokeColor=none;align=center;fillColor=none;html=1;verticalAlign=middle;whiteSpace=wrap;rounded=0;" vertex="1" parent="1">
          <mxGeometry x="472" y="397" width="50" height="30" as="geometry" />
        </mxCell>
        <mxCell id="QGvBPcfqkOfmn8XZEpkV-301" value="011&lt;br&gt;0x09" style="text;strokeColor=none;align=center;fillColor=none;html=1;verticalAlign=middle;whiteSpace=wrap;rounded=0;" vertex="1" parent="1">
          <mxGeometry x="522" y="397" width="50" height="30" as="geometry" />
        </mxCell>
        <mxCell id="QGvBPcfqkOfmn8XZEpkV-302" value="012&lt;br&gt;0x0A" style="text;strokeColor=none;align=center;fillColor=none;html=1;verticalAlign=middle;whiteSpace=wrap;rounded=0;" vertex="1" parent="1">
          <mxGeometry x="571" y="397" width="50" height="30" as="geometry" />
        </mxCell>
        <mxCell id="QGvBPcfqkOfmn8XZEpkV-303" value="013&lt;br&gt;0x0B" style="text;strokeColor=none;align=center;fillColor=none;html=1;verticalAlign=middle;whiteSpace=wrap;rounded=0;" vertex="1" parent="1">
          <mxGeometry x="621" y="397" width="50" height="30" as="geometry" />
        </mxCell>
        <mxCell id="QGvBPcfqkOfmn8XZEpkV-304" value="014&lt;br&gt;0x0C" style="text;strokeColor=none;align=center;fillColor=none;html=1;verticalAlign=middle;whiteSpace=wrap;rounded=0;" vertex="1" parent="1">
          <mxGeometry x="671" y="397" width="50" height="30" as="geometry" />
        </mxCell>
        <mxCell id="QGvBPcfqkOfmn8XZEpkV-305" value="015&lt;br&gt;0x0D" style="text;strokeColor=none;align=center;fillColor=none;html=1;verticalAlign=middle;whiteSpace=wrap;rounded=0;" vertex="1" parent="1">
          <mxGeometry x="721" y="397" width="50" height="30" as="geometry" />
        </mxCell>
        <mxCell id="QGvBPcfqkOfmn8XZEpkV-306" value="016&lt;br&gt;0x0E" style="text;strokeColor=none;align=center;fillColor=none;html=1;verticalAlign=middle;whiteSpace=wrap;rounded=0;" vertex="1" parent="1">
          <mxGeometry x="770" y="397" width="50" height="30" as="geometry" />
        </mxCell>
        <mxCell id="QGvBPcfqkOfmn8XZEpkV-307" value="017&lt;br&gt;0x0F" style="text;strokeColor=none;align=center;fillColor=none;html=1;verticalAlign=middle;whiteSpace=wrap;rounded=0;" vertex="1" parent="1">
          <mxGeometry x="820" y="397" width="50" height="30" as="geometry" />
        </mxCell>
      </root>
    </mxGraphModel>
  </diagram>
</mxfile>
